# xmcd
#
# Track frame offsets: 
#        150
#        19287
#        37003
#        53136
#        73970
#        97687
#        116168
#        137168
#        152649
#        163876
#
# Disc length: 2513 seconds
#
# Revision: 0
# Processed by: cddbd v1.4PL0 Copyright (c) Steve Scherf et al.
# Submitted via: ExactAudioCopy v0.90b4
#
DISCID=8b09cf0a
DTITLE=Michael Martin Murphey - Flowing Free Forever
DYEAR=1976
DGENRE=Country
TTITLE0=Flowing Free Forever
TTITLE1=A North Wind and a New Moon
TTITLE2=Cherokee Fiddle
TTITLE3=See How All the Horses Come Dancing
TTITLE4=Yellow House
TTITLE5=Changing Woman
TTITLE6=High Country Caravan (aka Song for Stephen Stills)
TTITLE7=Running Wide Open
TTITLE8=Our Lady of Santa Fe
TTITLE9=The Wandering Minstrel
EXTD=
EXTT0=
EXTT1=
EXTT2=
EXTT3=
EXTT4=
EXTT5=
EXTT6=
EXTT7=
EXTT8=
EXTT9=
PLAYORDER=
